<?xml version="1.0" encoding="utf-8"?>
<!-- Generator: Adobe Illustrator 17.0.1, SVG Export Plug-In . SVG Version: 6.00 Build 0)  -->
<!DOCTYPE svg PUBLIC "-//W3C//DTD SVG 1.1//EN" "http://www.w3.org/Graphics/SVG/1.1/DTD/svg11.dtd">
<svg version="1.1" id="Isolation_Mode" xmlns="http://www.w3.org/2000/svg" xmlns:xlink="http://www.w3.org/1999/xlink" x="0px"
	 y="0px" width="767px" height="471px" viewBox="0 0 767 471" enable-background="new 0 0 767 471" xml:space="preserve">
<rect x="0" y="0" fill="#1075BD" width="767" height="471"/>
<g>
	<polyline fill="none" stroke="#F1F2F2" stroke-linejoin="round" stroke-miterlimit="10" points="146.417,333.587 146.417,344.087 
		378.917,344.087 	"/>
	<polyline fill="none" stroke="#F1F2F2" stroke-linejoin="round" stroke-miterlimit="10" points="609.417,333.587 609.417,344.087 
		378.917,344.087 	"/>
	<g>
		<circle fill="#FFD71C" cx="362.851" cy="100.649" r="15.33"/>
		<circle fill="#FFE54E" cx="362.853" cy="100.649" r="11.295"/>
		<g>
			<path fill="#F9BE2C" d="M362.041,106.475c-0.863-0.094-1.701-0.286-2.509-0.577c-0.812-0.292-1.55-0.675-2.214-1.153l1.576-2.328
				c0.557,0.398,1.103,0.714,1.635,0.947c0.528,0.232,1.07,0.395,1.616,0.489v-2.098c-0.697-0.164-1.314-0.35-1.845-0.561
				c-0.528-0.21-0.974-0.463-1.328-0.76c-0.358-0.297-0.624-0.644-0.804-1.041c-0.181-0.397-0.273-0.869-0.273-1.417v-0.033
				c0-0.515,0.096-0.987,0.28-1.419c0.188-0.43,0.458-0.806,0.816-1.127c0.354-0.323,0.793-0.581,1.31-0.779
				c0.517-0.199,1.111-0.319,1.779-0.367v-0.998h1.816v1.05c0.723,0.083,1.387,0.24,1.996,0.472c0.605,0.234,1.17,0.531,1.694,0.893
				l-1.435,2.343c-0.358-0.257-0.742-0.472-1.144-0.648c-0.399-0.175-0.801-0.308-1.199-0.402v2.028
				c0.701,0.166,1.31,0.354,1.83,0.57c0.52,0.216,0.952,0.472,1.302,0.769c0.351,0.297,0.613,0.651,0.786,1.059
				c0.177,0.408,0.262,0.88,0.262,1.415v0.037c0,0.535-0.1,1.017-0.295,1.443c-0.199,0.426-0.48,0.795-0.841,1.109
				c-0.358,0.316-0.797,0.566-1.302,0.753c-0.506,0.188-1.07,0.308-1.686,0.367v1.716h-1.819V106.475z M362.163,96.802
				c-0.432,0.037-0.738,0.135-0.919,0.29c-0.181,0.159-0.269,0.354-0.269,0.587v0.035c0,0.232,0.077,0.422,0.236,0.568
				c0.155,0.144,0.472,0.282,0.952,0.411V96.802z M363.79,103.957c0.782-0.081,1.17-0.378,1.17-0.891v-0.037
				c0-0.23-0.081-0.424-0.243-0.576c-0.162-0.151-0.472-0.292-0.926-0.421V103.957z"/>
		</g>
	</g>
	<g>
		<path fill="#FFD71C" d="M195.783,142.115c0,8.469-6.863,15.332-15.332,15.332c-8.465,0-15.328-6.863-15.328-15.332
			c0-8.465,6.863-15.328,15.328-15.328C188.92,126.787,195.783,133.65,195.783,142.115z"/>
		<path fill="#FFE54E" d="M191.75,142.115c0,6.24-5.059,11.299-11.299,11.299c-6.236,0-11.295-5.059-11.295-11.299
			c0-6.238,5.059-11.295,11.295-11.295C186.691,130.82,191.75,135.877,191.75,142.115z"/>
		<g>
			<path fill="#F9BE2C" d="M179.643,147.944c-0.867-0.094-1.701-0.284-2.513-0.578c-0.812-0.292-1.546-0.675-2.21-1.153l1.576-2.327
				c0.557,0.397,1.103,0.71,1.635,0.945c0.528,0.233,1.066,0.395,1.616,0.491v-2.1c-0.701-0.164-1.314-0.35-1.845-0.561
				c-0.531-0.209-0.974-0.463-1.329-0.76c-0.358-0.297-0.623-0.644-0.804-1.041c-0.181-0.397-0.273-0.869-0.273-1.417v-0.035
				c0-0.513,0.092-0.985,0.281-1.417c0.184-0.43,0.458-0.806,0.815-1.129c0.354-0.319,0.793-0.579,1.31-0.777
				c0.517-0.197,1.111-0.321,1.775-0.367v-0.998h1.819v1.05c0.723,0.083,1.387,0.24,1.993,0.472
				c0.605,0.234,1.173,0.531,1.697,0.893l-1.435,2.341c-0.362-0.254-0.742-0.47-1.144-0.646c-0.402-0.173-0.801-0.308-1.199-0.4
				v2.028c0.701,0.162,1.31,0.352,1.83,0.568c0.517,0.216,0.952,0.472,1.302,0.771c0.347,0.295,0.613,0.65,0.786,1.055
				c0.173,0.41,0.262,0.882,0.262,1.417v0.037c0,0.535-0.1,1.016-0.295,1.443c-0.199,0.424-0.48,0.795-0.841,1.111
				c-0.362,0.314-0.797,0.565-1.303,0.751c-0.509,0.186-1.07,0.31-1.69,0.367v1.716h-1.816V147.944z M179.761,138.272
				c-0.428,0.035-0.734,0.131-0.915,0.288c-0.181,0.159-0.273,0.354-0.273,0.587v0.035c0,0.234,0.078,0.422,0.236,0.568
				c0.159,0.144,0.476,0.28,0.952,0.41V138.272z M181.392,145.425c0.779-0.081,1.17-0.378,1.17-0.893v-0.033
				c0-0.234-0.081-0.426-0.244-0.577c-0.162-0.151-0.476-0.292-0.926-0.419V145.425z"/>
		</g>
	</g>
	<g>
		<path fill="#B7D02D" d="M656.659,175.572c-27.103-8.367-46.472,22.766-73.575,14.398c-2.148-10.971-4.295-21.941-6.443-32.913
			c27.103,8.365,46.476-22.767,73.575-14.402C652.364,153.628,654.511,164.6,656.659,175.572z"/>
		<path fill="#99B528" d="M650.46,169.569c-22.712-3.048-40.358,19.773-63.07,16.725c-1.517-7.745-3.033-15.491-4.55-23.236
			c22.712,3.048,40.361-19.769,63.07-16.721C647.426,154.08,648.943,161.823,650.46,169.569z"/>
		<path fill="#B7D02D" d="M624.932,162.401c0.989,5.061-2.136,10.943-6.941,13.334c-4.804,2.395-9.55-0.009-10.55-5.107
			c-0.989-5.063,2.144-10.893,6.952-13.286C619.198,154.949,623.932,157.303,624.932,162.401z"/>
		<g>
			<path fill="#99B528" d="M616.655,171.698c-0.716,0.264-1.428,0.43-2.133,0.498c-0.708,0.068-1.373,0.024-1.996-0.129
				c0.299-0.867,0.594-1.734,0.893-2.603c0.52,0.12,1.018,0.175,1.487,0.166c0.469-0.009,0.934-0.083,1.395-0.221
				c-0.118-0.6-0.236-1.199-0.351-1.799c-0.594,0.138-1.129,0.223-1.594,0.251c-0.469,0.029-0.867-0.013-1.207-0.129
				c-0.339-0.114-0.616-0.308-0.83-0.576c-0.214-0.271-0.365-0.64-0.458-1.111c0-0.009-0.004-0.018-0.007-0.031
				c-0.081-0.439-0.085-0.88-0.007-1.321c0.077-0.443,0.236-0.871,0.472-1.284c0.232-0.411,0.546-0.806,0.937-1.183
				c0.384-0.373,0.845-0.712,1.376-1.018c-0.055-0.284-0.111-0.568-0.166-0.854c0.491-0.24,0.985-0.482,1.476-0.723
				c0.059,0.301,0.118,0.6,0.177,0.9c0.601-0.218,1.166-0.345,1.697-0.386c0.531-0.041,1.041-0.007,1.528,0.096
				c-0.258,0.858-0.513,1.714-0.771,2.572c-0.336-0.076-0.683-0.111-1.037-0.1c-0.358,0.007-0.705,0.053-1.041,0.131
				c0.111,0.579,0.225,1.157,0.339,1.738c0.594-0.138,1.122-0.22,1.579-0.238c0.458-0.02,0.852,0.028,1.188,0.146
				c0.332,0.116,0.605,0.317,0.816,0.6c0.21,0.282,0.362,0.651,0.45,1.111c0.004,0.009,0.004,0.018,0.007,0.029
				c0.088,0.459,0.088,0.91,0,1.354c-0.089,0.441-0.255,0.867-0.495,1.278c-0.244,0.411-0.553,0.797-0.937,1.157
				c-0.377,0.362-0.816,0.69-1.306,0.983c0.096,0.491,0.192,0.982,0.288,1.471c-0.491,0.24-0.985,0.481-1.48,0.723
				C616.851,172.696,616.755,172.198,616.655,171.698z M615.135,163.362c-0.347,0.201-0.576,0.404-0.697,0.613
				c-0.122,0.207-0.162,0.41-0.122,0.609c0,0.009,0.004,0.019,0.004,0.028c0.04,0.201,0.136,0.334,0.288,0.397
				c0.151,0.063,0.432,0.052,0.845-0.028C615.345,164.442,615.238,163.901,615.135,163.362z M617.655,168.844
				c0.62-0.38,0.885-0.79,0.801-1.231c-0.004-0.009-0.004-0.019-0.007-0.029c-0.037-0.197-0.137-0.33-0.295-0.397
				c-0.155-0.065-0.432-0.063-0.823,0.007C617.438,167.744,617.548,168.294,617.655,168.844z"/>
		</g>
	</g>
	<g>
		<path fill="#B7D02D" d="M263.303,113.704c-13.601-13.146-34.505-0.469-48.107-13.612c2.029-7.175,4.059-14.347,6.092-21.52
			c13.598,13.146,34.505,0.465,48.103,13.613C267.362,99.355,265.333,106.53,263.303,113.704z"/>
		<path fill="#99B528" d="M261.425,108.263c-12.59-8.659-29.967-0.402-42.557-9.063c1.432-5.063,2.867-10.127,4.299-15.192
			c12.59,8.659,29.967,0.406,42.557,9.065C264.289,98.138,262.857,103.2,261.425,108.263z"/>
		<path fill="#B7D02D" d="M248.399,96.305c-0.934,3.308-4.568,5.865-8.144,5.84c-3.583-0.024-5.679-2.886-4.738-6.218
			c0.937-3.31,4.557-5.832,8.14-5.808C247.237,90.143,249.344,92.973,248.399,96.305z"/>
		<g>
			<path fill="#99B528" d="M240.676,99.342c-0.505-0.061-0.978-0.175-1.421-0.349c-0.439-0.173-0.823-0.398-1.148-0.679
				c0.439-0.426,0.878-0.851,1.317-1.278c0.273,0.229,0.55,0.411,0.834,0.548c0.281,0.135,0.583,0.232,0.897,0.288
				c0.111-0.393,0.221-0.784,0.332-1.175c-0.395-0.098-0.738-0.207-1.022-0.33c-0.288-0.124-0.513-0.271-0.679-0.441
				c-0.17-0.172-0.273-0.369-0.321-0.594c-0.044-0.225-0.022-0.491,0.063-0.799c0.004-0.006,0.004-0.013,0.007-0.02
				c0.081-0.284,0.21-0.55,0.391-0.788c0.181-0.24,0.402-0.446,0.668-0.62c0.266-0.177,0.568-0.316,0.915-0.422
				c0.34-0.107,0.72-0.168,1.125-0.188c0.052-0.188,0.107-0.375,0.155-0.559c0.369,0.004,0.734,0.009,1.1,0.013
				c-0.055,0.199-0.111,0.393-0.166,0.59c0.424,0.052,0.797,0.146,1.125,0.282c0.328,0.135,0.624,0.308,0.878,0.517
				c-0.41,0.434-0.819,0.865-1.233,1.297c-0.177-0.148-0.373-0.271-0.587-0.373c-0.218-0.103-0.435-0.181-0.66-0.236
				c-0.107,0.378-0.214,0.758-0.321,1.137c0.395,0.1,0.734,0.21,1.011,0.336c0.28,0.125,0.502,0.275,0.664,0.445
				c0.162,0.17,0.266,0.371,0.306,0.601c0.037,0.231,0.018,0.496-0.07,0.797c0,0.007-0.004,0.013-0.004,0.019
				c-0.085,0.301-0.221,0.57-0.41,0.806c-0.185,0.236-0.41,0.439-0.679,0.611c-0.266,0.173-0.568,0.308-0.904,0.408
				c-0.336,0.101-0.694,0.164-1.074,0.192c-0.092,0.319-0.181,0.64-0.273,0.959c-0.365-0.004-0.731-0.011-1.096-0.015
				C240.492,99.994,240.584,99.669,240.676,99.342z M242.285,93.924c-0.266,0.017-0.465,0.068-0.602,0.153
				c-0.133,0.089-0.218,0.196-0.254,0.327c-0.004,0.005-0.007,0.013-0.007,0.019c-0.037,0.131-0.019,0.238,0.052,0.323
				c0.074,0.081,0.244,0.16,0.513,0.238C242.082,94.628,242.185,94.276,242.285,93.924z M242.13,97.944
				c0.483-0.039,0.767-0.203,0.845-0.489c0.004-0.007,0.007-0.013,0.007-0.02c0.037-0.131,0.018-0.238-0.055-0.325
				c-0.074-0.087-0.24-0.168-0.494-0.244C242.333,97.224,242.233,97.586,242.13,97.944z"/>
		</g>
	</g>
	<g>
		<path fill="#B7D02D" d="M574.988,130.768c-13.476-24.957-49.11-16.313-62.59-41.273c6.155-9.332,12.31-18.666,18.465-28
			c13.476,24.957,49.114,16.314,62.59,41.273C587.297,112.104,581.143,121.436,574.988,130.768z"/>
		<path fill="#99B528" d="M574.77,122.143c-14.07-18.088-42.649-14.17-56.719-32.254c4.343-6.59,8.686-13.177,13.029-19.767
			c14.07,18.088,42.653,14.17,56.719,32.256C583.456,108.966,579.113,115.554,574.77,122.143z"/>
		<path fill="#B7D02D" d="M561.574,99.143c-2.838,4.302-9.188,6.312-14.292,4.649c-5.107-1.655-6.808-6.697-3.948-11.033
			c2.837-4.306,9.159-6.271,14.266-4.611C562.704,89.807,564.434,94.807,561.574,99.143z"/>
		<g>
			<path fill="#99B528" d="M549.158,99.979c-0.694-0.314-1.321-0.694-1.871-1.142c-0.554-0.445-0.996-0.943-1.332-1.489
				c0.816-0.41,1.638-0.819,2.458-1.232c0.288,0.45,0.605,0.839,0.945,1.159c0.343,0.325,0.727,0.598,1.155,0.823
				c0.336-0.511,0.668-1.02,1.004-1.53c-0.52-0.321-0.956-0.631-1.31-0.939c-0.35-0.304-0.609-0.616-0.771-0.937
				c-0.162-0.319-0.225-0.653-0.184-0.992c0.033-0.343,0.184-0.714,0.446-1.114c0.007-0.007,0.011-0.015,0.018-0.026
				c0.247-0.373,0.554-0.688,0.919-0.948c0.365-0.26,0.779-0.456,1.236-0.585c0.458-0.131,0.956-0.194,1.498-0.19
				c0.539,0.007,1.103,0.087,1.698,0.242c0.159-0.242,0.321-0.485,0.48-0.727c0.52,0.173,1.041,0.345,1.557,0.518
				c-0.166,0.256-0.332,0.511-0.502,0.768c0.579,0.266,1.074,0.57,1.483,0.913c0.406,0.343,0.745,0.723,1.022,1.138
				c-0.786,0.432-1.568,0.863-2.354,1.295c-0.185-0.29-0.41-0.557-0.668-0.801c-0.262-0.242-0.542-0.454-0.838-0.635
				c-0.325,0.491-0.65,0.987-0.974,1.478c0.524,0.319,0.952,0.631,1.295,0.939c0.339,0.302,0.587,0.616,0.742,0.934
				c0.159,0.317,0.21,0.653,0.166,1c-0.048,0.351-0.199,0.72-0.458,1.111c-0.004,0.007-0.011,0.017-0.018,0.024
				c-0.254,0.393-0.572,0.71-0.945,0.967c-0.373,0.251-0.79,0.439-1.251,0.563c-0.461,0.127-0.952,0.184-1.48,0.175
				c-0.524-0.011-1.063-0.081-1.62-0.216c-0.277,0.417-0.55,0.834-0.827,1.251c-0.52-0.173-1.041-0.347-1.557-0.518
				C548.597,100.828,548.877,100.403,549.158,99.979z M553.914,92.964c-0.388-0.1-0.697-0.116-0.93-0.052
				c-0.229,0.063-0.402,0.181-0.513,0.349c-0.004,0.009-0.011,0.017-0.015,0.026c-0.114,0.17-0.136,0.33-0.07,0.483
				c0.063,0.149,0.269,0.341,0.616,0.57C553.305,93.881,553.611,93.422,553.914,92.964z M551.87,98.639
				c0.708,0.164,1.184,0.061,1.432-0.314c0.007-0.009,0.015-0.019,0.018-0.026c0.111-0.172,0.136-0.334,0.066-0.491
				c-0.066-0.157-0.266-0.349-0.59-0.57C552.486,97.706,552.18,98.173,551.87,98.639z"/>
		</g>
	</g>
	<g>
		<path fill="#FFD71C" d="M438.9,120.56c0,14.917-12.096,27.013-27.015,27.013c-14.919,0-27.007-12.096-27.007-27.013
			s12.088-27.011,27.007-27.011C426.804,93.549,438.9,105.643,438.9,120.56z"/>
		<circle fill="#FFE54E" cx="411.887" cy="120.56" r="19.906"/>
		<g>
			<path fill="#F9BE2C" d="M410.564,130.827c-1.52-0.162-2.993-0.502-4.421-1.017c-1.432-0.513-2.731-1.192-3.9-2.033l2.775-4.1
				c0.985,0.699,1.948,1.255,2.882,1.664c0.934,0.413,1.886,0.699,2.849,0.863v-3.697c-1.233-0.288-2.317-0.618-3.251-0.987
				c-0.934-0.369-1.712-0.815-2.34-1.34c-0.631-0.526-1.1-1.136-1.421-1.834c-0.317-0.701-0.476-1.531-0.476-2.498v-0.061
				c0-0.904,0.162-1.734,0.494-2.496c0.328-0.76,0.801-1.422,1.432-1.987c0.624-0.566,1.398-1.022,2.31-1.373
				c0.911-0.347,1.956-0.563,3.129-0.647v-1.756h3.203v1.849c1.277,0.146,2.446,0.422,3.513,0.834
				c1.07,0.411,2.066,0.933,2.993,1.572l-2.528,4.127c-0.642-0.45-1.31-0.83-2.018-1.138c-0.708-0.308-1.413-0.543-2.111-0.708
				v3.574c1.233,0.29,2.306,0.622,3.218,1.002c0.915,0.382,1.683,0.832,2.299,1.356c0.616,0.524,1.077,1.146,1.387,1.863
				c0.306,0.72,0.461,1.554,0.461,2.498v0.061c0,0.945-0.173,1.793-0.524,2.544c-0.35,0.749-0.845,1.402-1.48,1.957
				c-0.638,0.554-1.402,0.995-2.299,1.323c-0.893,0.329-1.882,0.544-2.97,0.648v3.022h-3.207V130.827z M410.782,113.785
				c-0.764,0.063-1.302,0.232-1.62,0.509c-0.317,0.277-0.476,0.622-0.476,1.033v0.061c0,0.413,0.136,0.746,0.413,1
				c0.277,0.258,0.838,0.498,1.683,0.725V113.785z M413.649,126.392c1.373-0.144,2.063-0.668,2.063-1.574v-0.059
				c0-0.413-0.144-0.751-0.432-1.02c-0.288-0.266-0.83-0.511-1.631-0.738V126.392z"/>
		</g>
	</g>
	<g>
		<circle fill="#FFD71C" cx="602.532" cy="224.078" r="18.124"/>
		<circle fill="#FFE54E" cx="602.53" cy="224.078" r="13.354"/>
		<g>
			<path fill="#F9BE2C" d="M601.6,230.967c-1.022-0.111-2.011-0.338-2.97-0.683c-0.956-0.345-1.83-0.801-2.616-1.365l1.86-2.751
				c0.664,0.469,1.306,0.843,1.937,1.118c0.627,0.277,1.266,0.467,1.911,0.577v-2.48c-0.827-0.194-1.557-0.413-2.181-0.66
				c-0.627-0.249-1.151-0.55-1.572-0.9c-0.421-0.351-0.738-0.76-0.952-1.231c-0.214-0.469-0.321-1.028-0.321-1.674v-0.042
				c0-0.607,0.111-1.164,0.332-1.674c0.221-0.511,0.542-0.956,0.963-1.334c0.417-0.382,0.937-0.686,1.55-0.921
				c0.612-0.236,1.314-0.38,2.1-0.435v-1.179h2.148v1.242c0.856,0.096,1.638,0.284,2.358,0.559c0.716,0.275,1.384,0.627,2.004,1.053
				l-1.694,2.771c-0.428-0.304-0.878-0.557-1.354-0.766c-0.476-0.209-0.948-0.363-1.417-0.474v2.397
				c0.827,0.194,1.546,0.417,2.162,0.672c0.612,0.256,1.125,0.561,1.539,0.911c0.413,0.351,0.723,0.768,0.93,1.249
				c0.207,0.483,0.31,1.042,0.31,1.675v0.041c0,0.635-0.115,1.205-0.351,1.708c-0.232,0.502-0.565,0.941-0.992,1.314
				c-0.428,0.371-0.941,0.668-1.543,0.887c-0.598,0.22-1.262,0.365-1.992,0.435v2.026H601.6V230.967z M601.74,219.533
				c-0.509,0.041-0.871,0.153-1.085,0.341c-0.214,0.185-0.321,0.417-0.321,0.692v0.043c0,0.275,0.096,0.498,0.281,0.67
				c0.188,0.172,0.565,0.334,1.125,0.487V219.533z M603.666,227.991c0.923-0.1,1.384-0.45,1.384-1.057v-0.04
				c0-0.275-0.1-0.502-0.288-0.683c-0.196-0.179-0.557-0.343-1.096-0.496V227.991z"/>
		</g>
	</g>
	<g>
		<g>
			<g>
				<path fill="#0E303F" d="M378.48,314.653c-2.989,12.232-5.989,24.465-8.974,36.701c27.93,0,55.845,0,83.774,0
					c-2.993-12.236-5.993-24.469-8.974-36.701C422.361,314.653,400.432,314.653,378.48,314.653z"/>
				<path fill="#F1F2F2" d="M458.457,350.704h-94.132c-2.376,0-4.321,2.269-4.321,5.081v1.908h102.778v-1.908
					C462.782,352.973,460.837,350.704,458.457,350.704z"/>
				<path fill="#F1F2F2" d="M269.849,300.369v20.229c0,3.893,3.151,7.041,7.052,7.041h268.983c3.885,0,7.041-3.148,7.041-7.041
					v-20.229H269.849z"/>
				<path fill="#0E303F" d="M552.925,300.369V129.13c0-3.889-3.155-7.044-7.041-7.044H276.901c-3.9,0-7.052,3.155-7.052,7.044
					v171.239H552.925z"/>
				<rect x="281.436" y="133.097" fill="#FFFFFF" width="259.899" height="155.589"/>
			</g>
			<rect x="281.436" y="131.202" fill="#636363" width="259.899" height="30.066"/>
			<g>
				<path fill="#01C5C5" d="M297.746,146.246c0,2.587-2.089,4.675-4.675,4.675c-2.587,0-4.698-2.088-4.698-4.675
					c0-2.589,2.111-4.697,4.698-4.697C295.657,141.549,297.746,143.658,297.746,146.246z"/>
				<path fill="#B8DE70" d="M310.488,146.246c0,2.587-2.107,4.675-4.694,4.675c-2.587,0-4.675-2.088-4.675-4.675
					c0-2.589,2.089-4.697,4.675-4.697C308.381,141.549,310.488,143.658,310.488,146.246z"/>
				<path fill="#F29232" d="M323.214,146.246c0,2.587-2.088,4.675-4.679,4.675c-2.605,0-4.694-2.088-4.694-4.675
					c0-2.589,2.089-4.697,4.694-4.697C321.126,141.549,323.214,143.658,323.214,146.246z"/>
			</g>
			<rect x="332.602" y="141.549" fill="#FFFFFF" width="193.05" height="9.373"/>
			<g>
				<rect x="298.13" y="180.517" fill="#636363" width="17.111" height="6.59"/>
				<rect x="318.096" y="180.517" fill="#636363" width="30.203" height="6.59"/>
			</g>
			<g>
				<rect x="460.826" y="180.517" fill="#636363" width="35.856" height="6.592"/>
				<rect x="499.538" y="180.517" fill="#636363" width="11.457" height="6.592"/>
			</g>
			<g>
				<rect x="298.13" y="196.594" fill="#636363" width="7.742" height="6.572"/>
				<rect x="308.727" y="196.594" fill="#636363" width="39.572" height="6.572"/>
			</g>
			<g>
				<rect x="460.826" y="196.583" fill="#636363" width="17.114" height="6.594"/>
				<rect x="480.796" y="196.583" fill="#636363" width="30.199" height="6.594"/>
			</g>
			<g>
				<g>
					<rect x="310.488" y="207.535" fill="#F1F1F1" width="18.225" height="16.882"/>
				</g>
				<g>
					<rect x="477.94" y="209.578" fill="#F1F1F1" width="18.221" height="16.882"/>
				</g>
				<g>
					<path fill="#B8DE70" d="M486.944,224.257c-0.535,0-1.07-0.192-1.472-0.557l-4.849-4.31c-0.69-0.614-0.749-1.65-0.136-2.34
						c0.594-0.672,1.649-0.747,2.321-0.133l3.852,3.41l4.273-8.029c0.421-0.804,1.435-1.111,2.24-0.67
						c0.804,0.422,1.092,1.419,0.672,2.223l-4.926,9.255c-0.325,0.594-0.882,0.996-1.572,1.112
						C487.213,224.257,487.08,224.257,486.944,224.257z"/>
				</g>
				<g>
					<path fill="#B8DE70" d="M319.495,223.057c-0.535,0-1.074-0.192-1.476-0.555l-4.849-4.312c-0.69-0.614-0.745-1.668-0.133-2.338
						c0.594-0.69,1.65-0.749,2.317-0.135l3.852,3.411l4.273-8.029c0.421-0.804,1.439-1.111,2.244-0.69
						c0.804,0.441,1.092,1.437,0.671,2.242l-4.926,9.256c-0.325,0.576-0.882,0.996-1.572,1.111
						C319.764,223.057,319.628,223.057,319.495,223.057z"/>
				</g>
			</g>
			<g>
				<g>
					<g>
						<rect x="364.45" y="179.711" fill="#64BFEA" width="73.911" height="16.884"/>
					</g>
					<g>
						<rect x="364.45" y="201.135" fill="#64BFEA" width="18.24" height="16.884"/>
					</g>
					<g>
						<rect x="392.291" y="201.135" fill="#64BFEA" width="18.244" height="16.884"/>
					</g>
					<g>
						<rect x="420.136" y="201.135" fill="#64BFEA" width="18.225" height="16.884"/>
					</g>
					<g>
						<rect x="364.45" y="222.539" fill="#64BFEA" width="73.911" height="16.884"/>
					</g>
				</g>
				<g>
					<rect x="364.45" y="244.375" fill="#FE537A" width="73.911" height="18.944"/>
					<g>
						<rect x="385.443" y="251.456" fill="#FFFFFF" width="11.114" height="4.282"/>
						<rect x="398.406" y="251.456" fill="#FFFFFF" width="19.627" height="4.282"/>
					</g>
				</g>
			</g>
		</g>
		<g>
			<g>
				<linearGradient id="SVGID_1_" gradientUnits="userSpaceOnUse" x1="89.6456" y1="227.1849" x2="273.1884" y2="293.989">
					<stop  offset="0.5" style="stop-color:#58595B"/>
					<stop  offset="0.5" style="stop-color:#454547"/>
				</linearGradient>
				<path fill="url(#SVGID_1_)" d="M252.917,348.414c0,3.962-3.212,7.173-7.173,7.173H117.09c-3.962,0-7.173-3.212-7.173-7.173
					V172.76c0-3.962,3.212-7.173,7.173-7.173h128.653c3.962,0,7.173,3.212,7.173,7.173V348.414z"/>
				<path fill="#FFFFFF" d="M183.215,175.36c0.029,1.199-0.93,2.188-2.159,2.205c-1.229,0.015-2.188-0.961-2.221-2.173
					c0-1.199,0.959-2.19,2.188-2.207C182.226,173.172,183.215,174.146,183.215,175.36z"/>
				<path fill="#ECF0F1" d="M186.902,348.049c0,2.413-1.919,4.391-4.376,4.408c-2.398,0.031-4.38-1.919-4.41-4.334
					c-0.029-2.43,1.919-4.391,4.351-4.422C184.865,343.688,186.843,345.621,186.902,348.049z"/>
				<path fill="#6D6E71" d="M184.684,334.339c0,1.214-0.959,2.203-2.159,2.203c-1.199,0.017-2.218-0.959-2.218-2.172
					c0-1.199,0.959-2.192,2.159-2.205C183.695,332.151,184.684,333.125,184.684,334.339z"/>
			</g>
			<g>
				<rect x="122.695" y="180.429" fill="#F1F1F1" width="119.601" height="153.91"/>
				<rect x="122.695" y="180.429" fill="#636363" width="119.601" height="21.956"/>
				<g>
					<path fill="#01C5C5" d="M134.618,191.408c0,1.888-1.539,3.419-3.428,3.419c-1.889,0-3.413-1.531-3.413-3.419
						c0-1.889,1.524-3.422,3.413-3.422C133.079,187.986,134.618,189.519,134.618,191.408z"/>
					<path fill="#B8DE70" d="M143.909,191.408c0,1.888-1.528,3.419-3.417,3.419c-1.889,0-3.428-1.531-3.428-3.419
						c0-1.889,1.539-3.422,3.428-3.422C142.382,187.986,143.909,189.519,143.909,191.408z"/>
					<path fill="#F29232" d="M153.212,191.408c0,1.888-1.539,3.419-3.428,3.419s-3.428-1.531-3.428-3.419
						c0-1.889,1.539-3.422,3.428-3.422S153.212,189.519,153.212,191.408z"/>
				</g>
				<rect x="160.053" y="187.986" fill="#FFFFFF" width="63.619" height="6.841"/>
				<g>
					<rect x="178.215" y="209.937" fill="#01C5C5" width="53.963" height="12.327"/>
				</g>
				<g>
					<rect x="178.215" y="225.568" fill="#01C5C5" width="13.317" height="12.332"/>
				</g>
				<g>
					<rect x="144.005" y="273.028" fill="#FFFFFF" width="13.321" height="12.326"/>
				</g>
				<g>
					<rect x="144.005" y="288.445" fill="#FFFFFF" width="13.321" height="12.313"/>
				</g>
				<g>
					<rect x="198.529" y="225.568" fill="#01C5C5" width="13.321" height="12.332"/>
				</g>
				<g>
					<rect x="218.861" y="225.568" fill="#01C5C5" width="13.317" height="12.332"/>
				</g>
				<g>
					<rect x="178.215" y="241.203" fill="#01C5C5" width="53.963" height="12.326"/>
				</g>
				<g>
					<g>
						<rect x="178.215" y="257.336" fill="#01C5C5" width="53.963" height="12.332"/>
					</g>
					<g>
						<rect x="178.215" y="272.97" fill="#01C5C5" width="53.963" height="12.328"/>
					</g>
					<g>
						<rect x="178.215" y="288.598" fill="#01C5C5" width="53.963" height="12.33"/>
					</g>
				</g>
				<g>
					<rect x="130.264" y="213.639" fill="#636363" width="12.483" height="4.806"/>
					<rect x="144.828" y="213.639" fill="#636363" width="22.052" height="4.806"/>
				</g>
				<g>
					<rect x="130.264" y="229.668" fill="#636363" width="26.166" height="4.804"/>
					<rect x="158.514" y="229.668" fill="#636363" width="8.365" height="4.804"/>
				</g>
				<g>
					<rect x="130.264" y="245.079" fill="#636363" width="5.653" height="4.806"/>
					<rect x="137.991" y="245.079" fill="#636363" width="28.889" height="4.806"/>
				</g>
				<g>
					<rect x="130.264" y="261.107" fill="#636363" width="12.483" height="4.799"/>
					<rect x="144.828" y="261.107" fill="#636363" width="22.052" height="4.799"/>
				</g>
				<path fill="#B8DE70" d="M146.777,294.701l3.539,3.148c0.196,0.168,0.531,0.127,0.642-0.1l3.598-6.756L146.777,294.701z"/>
				<path fill="#B8DE70" d="M146.777,279.911l3.539,3.148c0.196,0.181,0.531,0.125,0.642-0.1l3.598-6.755L146.777,279.911z"/>
				<rect x="151.463" y="310.915" fill="#FE537A" width="62.081" height="15.911"/>
				<g>
					<rect x="169.094" y="316.863" fill="#FFFFFF" width="9.328" height="3.594"/>
					<rect x="179.975" y="316.863" fill="#FFFFFF" width="16.483" height="3.594"/>
				</g>
			</g>
		</g>
		<g>
			<linearGradient id="SVGID_2_" gradientUnits="userSpaceOnUse" x1="580.4041" y1="257.3606" x2="649.8088" y2="351.0094">
				<stop  offset="0.5" style="stop-color:#58595B"/>
				<stop  offset="0.5" style="stop-color:#454547"/>
			</linearGradient>
			<path fill="url(#SVGID_2_)" d="M640.917,353.746c0,2.121-1.72,3.841-3.841,3.841h-66.317c-2.122,0-3.841-1.72-3.841-3.841
				V224.428c0-2.121,1.72-3.841,3.841-3.841h66.317c2.122,0,3.841,1.72,3.841,3.841V353.746z"/>
			<rect x="573.917" y="229.587" fill="#FFFFFF" width="59" height="109"/>
			<g>
				<rect x="575.371" y="231.672" fill="#636363" width="58.568" height="10.751"/>
				<g>
					<g>
						<rect x="582.962" y="258.408" fill="#636363" width="18.897" height="18.898"/>
						<path fill="none" stroke="#F1F1F1" stroke-width="0.0477" stroke-miterlimit="10" d="M582.962,258.408l18.897,18.898
							L582.962,258.408z"/>
						<path fill="none" stroke="#F1F1F1" stroke-width="0.0477" stroke-miterlimit="10" d="M601.858,258.408l-18.897,18.898
							L601.858,258.408z"/>
					</g>
					<g>
						<rect x="607.205" y="257.996" fill="#636363" width="18.889" height="18.899"/>
						<path fill="none" stroke="#F1F1F1" stroke-width="0.0477" stroke-miterlimit="10" d="M607.205,257.996l18.889,18.899
							L607.205,257.996z"/>
						<path fill="none" stroke="#F1F1F1" stroke-width="0.0477" stroke-miterlimit="10" d="M626.094,257.996l-18.889,18.899
							L626.094,257.996z"/>
					</g>
					<rect x="582.962" y="283.623" fill="#636363" width="18.897" height="18.895"/>
					<g>
						<path fill="none" stroke="#F1F1F1" stroke-width="0.0477" stroke-miterlimit="10" d="M584.209,283.45l18.9,18.895
							L584.209,283.45z"/>
						<path fill="none" stroke="#F1F1F1" stroke-width="0.0477" stroke-miterlimit="10" d="M603.109,283.45l-18.9,18.895
							L603.109,283.45z"/>
					</g>
					<g>
						<rect x="607.205" y="283.214" fill="#636363" width="18.889" height="18.893"/>
						<path fill="none" stroke="#F1F1F1" stroke-width="0.0477" stroke-miterlimit="10" d="M607.205,283.214l18.889,18.893
							L607.205,283.214z"/>
						<path fill="none" stroke="#F1F1F1" stroke-width="0.0477" stroke-miterlimit="10" d="M626.094,283.214l-18.889,18.893
							L626.094,283.214z"/>
					</g>
					<g>
						<rect x="582.962" y="308.837" fill="#636363" width="18.897" height="18.897"/>
						<path fill="none" stroke="#F1F1F1" stroke-width="0.0477" stroke-miterlimit="10" d="M582.962,308.837l18.897,18.897
							L582.962,308.837z"/>
						<path fill="none" stroke="#F1F1F1" stroke-width="0.0477" stroke-miterlimit="10" d="M601.858,308.837l-18.897,18.897
							L601.858,308.837z"/>
					</g>
					<g>
						<rect x="607.205" y="308.426" fill="#636363" width="18.889" height="18.899"/>
						<path fill="none" stroke="#F1F1F1" stroke-width="0.0477" stroke-miterlimit="10" d="M607.205,308.426l18.889,18.899
							L607.205,308.426z"/>
						<path fill="none" stroke="#F1F1F1" stroke-width="0.0477" stroke-miterlimit="10" d="M626.094,308.426l-18.889,18.899
							L626.094,308.426z"/>
					</g>
				</g>
				<path fill="#01C5C5" d="M581.202,237.048c0,0.924-0.745,1.675-1.679,1.675c-0.919,0-1.672-0.751-1.672-1.675
					c0-0.926,0.753-1.675,1.672-1.675C580.456,235.373,581.202,236.122,581.202,237.048z"/>
				<path fill="#B8DE70" d="M585.752,237.048c0,0.924-0.746,1.675-1.672,1.675c-0.926,0-1.679-0.751-1.679-1.675
					c0-0.926,0.753-1.675,1.679-1.675C585.006,235.373,585.752,236.122,585.752,237.048z"/>
				<path fill="#F29232" d="M590.309,237.048c0,0.924-0.753,1.675-1.679,1.675c-0.923,0-1.672-0.751-1.672-1.675
					c0-0.926,0.749-1.675,1.672-1.675C589.556,235.373,590.309,236.122,590.309,237.048z"/>
				<rect x="593.659" y="235.373" fill="#FFFFFF" width="31.158" height="3.351"/>
			</g>
		</g>
		<g>
			<g>
				<defs>
					<path id="SVGID_3_" d="M410.823,406.892h-1.731c-6.923,0-12.535-5.613-12.535-12.533V380.84
						c0-6.921,5.613-12.553,12.535-12.553h1.731c6.919,0,12.513,5.633,12.513,12.553v13.518
						C423.336,401.28,417.741,406.892,410.823,406.892z"/>
				</defs>
				<use xlink:href="#SVGID_3_"  overflow="visible" fill="#E1E6E9"/>
				<clipPath id="SVGID_4_">
					<use xlink:href="#SVGID_3_"  overflow="visible"/>
				</clipPath>
				<path clip-path="url(#SVGID_4_)" fill="#EBF0F3" d="M398.83,401.923h-2.816c-11.243,0-20.358-8.812-20.358-19.716v-21.302
					c0-10.885,9.114-19.716,20.358-19.716h2.816c11.229,0,20.361,8.83,20.361,19.716v21.302
					C419.192,393.112,410.059,401.923,398.83,401.923z"/>
				<rect x="395.653" y="368.287" clip-path="url(#SVGID_4_)" fill="#F15F50" width="14.605" height="11.266"/>
			</g>
			<rect x="407.443" y="365.189" fill="#F1F2F2" width="5.391" height="3.177"/>
			<rect x="408.642" y="354.712" fill="#F1F2F2" width="2.993" height="13.655"/>
		</g>
		<g>
			<g>
				<path fill="#FFBF5D" d="M414.823,404.097c0,1.227-1.708,1.507-2.937,1.507l0,0c-1.207,0-2.897-0.281-2.897-1.507l0.705-16.657
					c0-1.227,0.985-2.194,2.192-2.194l0,0c1.247,0,2.214,0.967,2.214,2.194L414.823,404.097z"/>
				<path fill="#FFBF5D" d="M413.413,416.711c0.443,0.522-0.764,1.729-1.709,2.494l0,0c-0.945,0.764-2.354,1.69-2.797,1.166
					l-5.41-7.786c-0.424-0.542-3.299-2.996-2.354-3.722c0,0,0.159-0.242,0.745-0.563c1.266-1.067,3.701,0.059,4.122,0.603
					L413.413,416.711z"/>
				<path fill="#FFBF5D" d="M421.118,404.84c0,0.605-1.668,0.764-2.915,0.764l0,0c-1.207,0-2.897-0.159-2.897-0.764l1.044-8.328
					c0-0.603,0.646-1.085,1.852-1.085l0,0c1.247,0,1.871,0.482,1.871,1.085L421.118,404.84z"/>
				<path fill="#FFB700" d="M427.457,405.043c0,0.443-1.712,0.561-2.919,0.561l0,0c-1.225,0-2.915-0.118-2.915-0.561l1.044-6.096
					c0-0.463,0.646-0.827,1.871-0.827l0,0c1.207,0,1.852,0.363,1.852,0.827L427.457,405.043z"/>
				<path fill="#FFB700" d="M432.645,405.265c0,0.26-1.288,0.34-2.494,0.34l0,0c-1.225,0-2.576-0.079-2.576-0.34l1.066-3.764
					c0.144-0.281,0.284-0.483,1.509-0.483l0,0c1.207,0,1.35,0.203,1.491,0.483L432.645,405.265z"/>
				<path fill="#FFBF5D" d="M432.708,419.807c0,2.494-2.114,4.528-4.708,4.528h-14.302c-2.598,0-4.708-2.033-4.708-4.528v-17.601
					c0-2.494,2.111,1.509,4.708,1.509h8.69c1.166,0,3.218,0.461,5.188,0.421c2.458-0.059,4.749-0.502,5.07,0.867L432.708,419.807z"
					/>
			</g>
			<g>
				<path fill="#F2AD58" d="M432.645,405.265L432.645,405.265L432.645,405.265v-0.262c-0.041-0.122-0.1-0.242-0.159-0.343
					l-0.845-3.159c-0.14-0.281-0.284-0.483-1.491-0.483c-1.225,0-1.365,0.203-1.509,0.483l-0.742,2.616
					c-0.103,0-0.203,0-0.325,0.019c-0.077,0-0.199-0.019-0.28-0.019l-0.904-5.17c0-0.463-0.646-0.827-1.852-0.827
					c-1.225,0-1.871,0.363-1.871,0.827l-0.804,4.768h-0.723v20.62H428c2.594,0,4.708-2.033,4.708-4.528L432.645,405.265z"/>
			</g>
			<path fill="#FFFFFF" d="M431.941,423.409c0,0.565-0.181,1.026-1.284,1.026h-19.779c-1.085,0-0.923-0.461-0.923-1.026l0,0
				c0-0.583-0.162-1.044,0.923-1.044h19.779C431.76,422.364,431.941,422.826,431.941,423.409L431.941,423.409z"/>
			<path fill="#27A3D9" d="M431.941,424.757c0,1.448-0.181,4.747-1.284,4.747h-19.779c-1.085,0-0.923-3.299-0.923-4.747l0,0
				c0-1.448-0.162-0.504,0.923-0.504h19.779C431.76,424.253,431.941,423.309,431.941,424.757L431.941,424.757z"/>
		</g>
	</g>
	<g>
		<path fill="#FFFFFF" d="M492.442,401.547L492.442,401.547c0-9.878-8.022-17.898-17.919-17.898l0,0
			c9.897,0,17.919-8.02,17.919-17.899l0,0c0,9.878,8.004,17.899,17.882,17.899l0,0C500.446,383.649,492.442,391.669,492.442,401.547
			z"/>
		<path fill="#96C4CC" d="M474.523,403.352L474.523,403.352c0-5.932-4.793-10.745-10.742-10.745l0,0
			c5.948,0,10.742-4.812,10.742-10.742l0,0c0,5.93,4.812,10.742,10.745,10.742l0,0C479.335,392.606,474.523,397.42,474.523,403.352z
			"/>
	</g>
	<g>
		<path fill="#FFFFFF" d="M236.447,148.183L236.447,148.183c0-7.825-6.354-14.179-14.192-14.179l0,0
			c7.838,0,14.192-6.352,14.192-14.177l0,0c0,7.825,6.339,14.177,14.166,14.177l0,0
			C242.787,134.004,236.447,140.359,236.447,148.183z"/>
		<path fill="#96C4CC" d="M222.256,149.613L222.256,149.613c0-4.699-3.797-8.513-8.509-8.513l0,0c4.712,0,8.509-3.812,8.509-8.507
			l0,0c0,4.695,3.812,8.507,8.509,8.507l0,0C226.067,141.1,222.256,144.914,222.256,149.613z"/>
	</g>
</g>
</svg>
