<?xml version="1.0" encoding="utf-8"?>
<!-- Generator: Adobe Illustrator 17.0.1, SVG Export Plug-In . SVG Version: 6.00 Build 0)  -->
<!DOCTYPE svg PUBLIC "-//W3C//DTD SVG 1.1//EN" "http://www.w3.org/Graphics/SVG/1.1/DTD/svg11.dtd">
<svg version="1.1" id="Isolation_Mode" xmlns="http://www.w3.org/2000/svg" xmlns:xlink="http://www.w3.org/1999/xlink" x="0px"
	 y="0px" width="120.605px" height="139.377px" viewBox="0 0 120.605 139.377" enable-background="new 0 0 120.605 139.377"
	 xml:space="preserve">
<g>
	<path fill="#973520" d="M100.524,102.777c0.002,2.607-2.063,5.296-4.612,6.001L4.654,134.064c-2.549,0.705-4.614-0.838-4.615-3.446
		L0,50.665c-0.001-2.609,2.063-5.296,4.612-6.002l91.259-25.285c2.548-0.707,4.614,0.836,4.615,3.445L100.524,102.777z"/>
	<path fill="#7B2B1A" d="M91.865,104.586c0.002,2.192-1.734,4.452-3.876,5.044l-76.703,21.254c-2.141,0.591-3.877-0.706-3.878-2.897
		L7.375,60.786c-0.002-2.193,1.734-4.452,3.876-5.045l76.703-21.252c2.14-0.594,3.878,0.703,3.879,2.896L91.865,104.586z"/>
	<g>
		<g>
			
				<rect x="1.335" y="32.844" transform="matrix(-5.893310e-005 -1 1 -5.893310e-005 1.3375 116.8354)" fill="#92B78F" width="115.496" height="49.81"/>
		</g>
		<g>
			<g>
				<path fill="#769B77" d="M36.44,112.088l45.291-0.002L81.725,2.738L36.434,2.741L36.44,112.088z M39.293,5.477
					c-0.04,0.028-0.081,0.053-0.122,0.08L39.17,5.478L39.293,5.477z M65.842,9.55c0,3.006,3.429,5.442,7.663,5.442
					c2.15,0,4.093-0.631,5.484-1.646l0.006,88.134c-1.393-1.016-3.335-1.646-5.485-1.646c-4.233,0.002-7.662,2.438-7.662,5.444
					c0,1.622,1.006,3.076,2.592,4.071l-19.001,0.001c1.588-0.995,2.594-2.449,2.592-4.071c0.001-3.008-3.43-5.443-7.66-5.443
					c-2.007,0.001-3.828,0.553-5.195,1.448l-0.004-87.737c1.367,0.895,3.186,1.447,5.193,1.446c4.232-0.001,7.662-2.438,7.663-5.442
					c-0.003-1.625-1.007-3.078-2.595-4.074l19.001-0.001C66.848,6.473,65.842,7.926,65.842,9.55z M39.177,109.273
					c0.04,0.026,0.081,0.055,0.121,0.078h-0.12L39.177,109.273z M78.579,109.35c0.145-0.09,0.284-0.18,0.417-0.277v0.276
					L78.579,109.35z M78.99,5.752c-0.133-0.096-0.274-0.187-0.417-0.277l0.416,0L78.99,5.752z"/>
			</g>
		</g>
		<g>
			<path fill="#88B589" d="M59.207,45.482c8.137-0.001,14.731,5.341,14.732,11.932c0,6.588-6.595,11.93-14.73,11.93
				c-8.138,0.001-14.731-5.34-14.729-11.928C44.479,50.825,51.072,45.482,59.207,45.482z"/>
		</g>
		<g>
			<circle fill="#88B589" cx="59.368" cy="86.242" r="5.019"/>
		</g>
		<g>
			<path fill="#88B589" d="M59.363,24.846c2.772-0.001,5.022,2.245,5.02,5.018c0,2.77-2.248,5.017-5.018,5.018
				c-2.771,0-5.018-2.247-5.017-5.018C54.347,27.091,56.596,24.846,59.363,24.846z"/>
		</g>
		<g>
			<path fill="#88B589" d="M79.908,57.414c0.001,9.419-9.285,17.083-20.696,17.084c-11.417,0.001-20.703-7.663-20.704-17.083
				c-0.001-9.421,9.286-17.086,20.701-17.086C70.622,40.329,79.91,47.993,79.908,57.414z M41.852,57.416
				c-0.001,7.577,7.787,13.741,17.358,13.74c9.571-0.001,17.356-6.165,17.356-13.742c0-7.578-7.787-13.742-17.358-13.742
				S41.851,49.838,41.852,57.416z"/>
		</g>
		<g>
			<path fill="#ACD7A8" d="M78.655,57.749c0.001,8.729-8.722,15.831-19.446,15.831c-10.724,0.001-19.447-7.099-19.447-15.829
				c-0.001-8.73,8.725-15.832,19.448-15.833C69.931,41.917,78.654,49.019,78.655,57.749z M40.597,57.751
				c0.003,8.267,8.351,14.994,18.612,14.993c10.263-0.001,18.612-6.727,18.61-14.995c-0.001-8.269-8.349-14.995-18.611-14.996
				C48.945,42.755,40.596,49.483,40.597,57.751z"/>
		</g>
	</g>
	<g>
		<g>
			
				<rect x="-7.485" y="39.594" transform="matrix(-5.893310e-005 -1 1 -5.893310e-005 -14.2334 114.7655)" fill="#ACD7A8" width="115.496" height="49.81"/>
		</g>
		<g>
			<g>
				<path fill="#769B77" d="M27.62,118.838l45.291-0.002L72.904,9.488L27.613,9.491L27.62,118.838z M30.473,12.227
					c-0.04,0.028-0.081,0.053-0.122,0.08l-0.001-0.079L30.473,12.227z M57.021,16.3c0,3.006,3.429,5.442,7.663,5.442
					c2.15,0,4.093-0.631,5.484-1.645l0.006,88.134c-1.393-1.016-3.335-1.646-5.485-1.646c-4.232,0.002-7.662,2.438-7.662,5.444
					c0,1.622,1.006,3.076,2.592,4.071l-19.001,0.001c1.588-0.995,2.594-2.449,2.592-4.071c0.001-3.008-3.43-5.443-7.66-5.443
					c-2.007,0.001-3.828,0.553-5.195,1.448l-0.004-87.737c1.367,0.895,3.187,1.447,5.193,1.446c4.233,0,7.662-2.438,7.663-5.442
					c-0.003-1.625-1.007-3.078-2.595-4.074l19.001-0.001C58.027,13.223,57.021,14.676,57.021,16.3z M30.356,116.023
					c0.04,0.026,0.081,0.055,0.121,0.078h-0.12L30.356,116.023z M69.759,116.1c0.145-0.09,0.284-0.18,0.417-0.277v0.276
					L69.759,116.1z M70.17,12.502c-0.133-0.096-0.274-0.186-0.417-0.277l0.416,0L70.17,12.502z"/>
			</g>
		</g>
		<g>
			<ellipse fill="#88B589" cx="50.388" cy="64.164" rx="14.731" ry="11.931"/>
		</g>
		<g>
			<circle fill="#88B589" cx="50.548" cy="92.992" r="5.019"/>
		</g>
		<g>
			<path fill="#88B589" d="M50.543,31.596c2.772-0.001,5.021,2.245,5.021,5.018c0,2.77-2.248,5.017-5.018,5.018
				c-2.772,0-5.018-2.247-5.017-5.018C45.526,33.841,47.775,31.596,50.543,31.596z"/>
		</g>
		<g>
			<path fill="#88B589" d="M71.088,64.164c0.001,9.419-9.285,17.083-20.696,17.085c-11.417,0-20.703-7.663-20.704-17.083
				c-0.001-9.421,9.286-17.086,20.701-17.086C61.802,47.079,71.09,54.743,71.088,64.164z M33.031,64.166
				c-0.001,7.577,7.787,13.741,17.358,13.74c9.571-0.001,17.357-6.165,17.357-13.742c0-7.578-7.787-13.742-17.358-13.742
				S33.03,56.588,33.031,64.166z"/>
		</g>
		<g>
			<path fill="#ACD7A8" d="M69.835,64.499c0.001,8.729-8.722,15.831-19.446,15.832c-10.724,0-19.447-7.1-19.447-15.83
				c-0.001-8.731,8.725-15.832,19.448-15.834C61.11,48.667,69.834,55.769,69.835,64.499z M31.776,64.502
				c0.003,8.267,8.351,14.994,18.612,14.993c10.263-0.001,18.612-6.727,18.61-14.995c-0.001-8.269-8.349-14.995-18.611-14.996
				C40.125,49.505,31.775,56.233,31.776,64.502z"/>
		</g>
	</g>
	<path fill="#B73E26" d="M118.165,134.416c0,2.739-2.429,4.961-5.426,4.961H5.426c-2.998,0-5.426-2.222-5.426-4.961v-83.96
		c0-2.74,2.428-4.96,5.426-4.96h107.314c2.997,0,5.426,2.221,5.426,4.96V134.416z"/>
	
		<path fill="none" stroke="#B27C2B" stroke-width="1.8484" stroke-linecap="round" stroke-miterlimit="10" stroke-dasharray="10.6637,10.6637" d="
		M110.682,129.1c0,2.393-2.121,4.332-4.738,4.332H12.221c-2.618,0-4.738-1.939-4.738-4.332V55.774c0-2.393,2.12-4.332,4.738-4.332
		h93.723c2.617,0,4.738,1.94,4.738,4.332V129.1z"/>
	<polygon opacity="0.3" fill="#231F20" points="82.625,98.188 118.165,124.688 117.875,95.438 	"/>
	<path fill="#E39C29" d="M120.605,94.021c0,2.739-2.732,4.96-6.103,4.96H86.518c-3.371,0-6.104-2.221-6.104-4.96v-10.84
		c0-2.739,2.732-4.96,6.104-4.96h27.985c3.37,0,6.103,2.221,6.103,4.96V94.021z"/>
	<circle fill="#231F20" cx="88.875" cy="88.437" r="4"/>
	<path opacity="0.1" fill="#231F20" d="M80.414,89.231v4.708c0,2.739,2.732,4.96,6.104,4.96h27.985c3.37,0,6.103-2.221,6.103-4.96
		v-4.708H80.414z"/>
</g>
</svg>
